<?xml version="1.0" encoding="UTF-8"?>
<svg xmlns="http://www.w3.org/2000/svg" version="1.1" width="100" height="100" viewBox="0 0 100 100"><rect x="0" y="0" width="100" height="100" fill="#ffffff"/><g transform="scale(4)"><g transform="translate(0,0)"><path fill-rule="evenodd" d="M8 0L8 4L9 4L9 5L8 5L8 7L9 7L9 6L10 6L10 9L11 9L11 8L12 8L12 9L13 9L13 8L12 8L12 7L13 7L13 6L12 6L12 7L11 7L11 3L10 3L10 2L9 2L9 0ZM13 0L13 1L11 1L11 2L12 2L12 5L14 5L14 7L15 7L15 5L16 5L16 7L17 7L17 3L16 3L16 2L17 2L17 0L16 0L16 2L15 2L15 1L14 1L14 0ZM13 2L13 4L14 4L14 5L15 5L15 4L14 4L14 2ZM0 8L0 9L2 9L2 10L0 10L0 12L1 12L1 11L2 11L2 13L3 13L3 14L2 14L2 15L3 15L3 17L7 17L7 16L8 16L8 15L7 15L7 14L5 14L5 13L4 13L4 11L3 11L3 10L4 10L4 9L5 9L5 10L6 10L6 11L5 11L5 12L6 12L6 13L7 13L7 12L10 12L10 11L11 11L11 10L8 10L8 11L7 11L7 10L6 10L6 9L7 9L7 8L4 8L4 9L2 9L2 8ZM14 8L14 10L13 10L13 11L12 11L12 12L11 12L11 13L10 13L10 14L9 14L9 13L8 13L8 14L9 14L9 16L10 16L10 15L11 15L11 16L12 16L12 17L13 17L13 19L12 19L12 20L10 20L10 21L9 21L9 19L11 19L11 17L8 17L8 18L9 18L9 19L8 19L8 21L9 21L9 23L8 23L8 25L10 25L10 21L12 21L12 22L11 22L11 24L12 24L12 25L14 25L14 23L15 23L15 25L16 25L16 22L15 22L15 20L13 20L13 19L14 19L14 17L15 17L15 16L16 16L16 21L17 21L17 25L18 25L18 23L19 23L19 24L22 24L22 25L25 25L25 24L24 24L24 22L25 22L25 19L24 19L24 18L23 18L23 17L24 17L24 16L25 16L25 15L24 15L24 16L23 16L23 10L22 10L22 9L25 9L25 8L21 8L21 9L20 9L20 8L19 8L19 9L20 9L20 10L21 10L21 11L20 11L20 12L19 12L19 10L18 10L18 12L17 12L17 13L16 13L16 12L15 12L15 11L17 11L17 9L15 9L15 8ZM6 11L6 12L7 12L7 11ZM13 11L13 12L12 12L12 13L11 13L11 14L12 14L12 13L14 13L14 14L13 14L13 15L12 15L12 16L13 16L13 17L14 17L14 15L15 15L15 13L14 13L14 11ZM21 11L21 12L20 12L20 13L18 13L18 14L16 14L16 15L17 15L17 16L18 16L18 15L19 15L19 16L21 16L21 21L19 21L19 22L20 22L20 23L21 23L21 21L22 21L22 14L21 14L21 15L19 15L19 14L20 14L20 13L22 13L22 11ZM24 12L24 13L25 13L25 12ZM0 13L0 14L1 14L1 13ZM3 14L3 15L5 15L5 14ZM6 15L6 16L7 16L7 15ZM0 16L0 17L2 17L2 16ZM17 17L17 20L20 20L20 17ZM18 18L18 19L19 19L19 18ZM12 20L12 21L13 21L13 22L14 22L14 21L13 21L13 20ZM22 22L22 23L23 23L23 22ZM12 23L12 24L13 24L13 23ZM0 0L0 7L7 7L7 0ZM1 1L1 6L6 6L6 1ZM2 2L2 5L5 5L5 2ZM18 0L18 7L25 7L25 0ZM19 1L19 6L24 6L24 1ZM20 2L20 5L23 5L23 2ZM0 18L0 25L7 25L7 18ZM1 19L1 24L6 24L6 19ZM2 20L2 23L5 23L5 20Z" fill="#000000"/></g></g></svg>
